<svg width="126" height="48" viewBox="0 0 126 48" fill="none" xmlns="http://www.w3.org/2000/svg">
            <g clip-path="url(#clip0_4368_321187)">
              <rect width="126" height="48" rx="4" fill="#426B1F" />
              <path d="M24.2571 29.5V17.8636H28.7116C29.5526 17.8636 30.2514 17.9962 30.8082 18.2614C31.3688 18.5227 31.7874 18.8807 32.0639 19.3352C32.3442 19.7898 32.4844 20.3049 32.4844 20.8807C32.4844 21.3542 32.3935 21.7595 32.2116 22.0966C32.0298 22.4299 31.7855 22.7008 31.4787 22.9091C31.1719 23.1174 30.8291 23.267 30.4503 23.358V23.4716C30.8632 23.4943 31.259 23.6212 31.6378 23.8523C32.0204 24.0795 32.3329 24.4015 32.5753 24.8182C32.8177 25.2348 32.9389 25.7386 32.9389 26.3295C32.9389 26.9318 32.7931 27.4735 32.5014 27.9545C32.2098 28.4318 31.7704 28.8087 31.1832 29.0852C30.5961 29.3617 29.8575 29.5 28.9673 29.5H24.2571ZM26.3651 27.7386H28.6321C29.3973 27.7386 29.9484 27.5928 30.2855 27.3011C30.6264 27.0057 30.7969 26.6269 30.7969 26.1648C30.7969 25.8201 30.7116 25.5095 30.5412 25.233C30.3707 24.9527 30.1283 24.733 29.8139 24.5739C29.4995 24.411 29.1245 24.3295 28.6889 24.3295H26.3651V27.7386ZM26.3651 22.8125H28.4503C28.8139 22.8125 29.1416 22.7462 29.4332 22.6136C29.7249 22.4773 29.9541 22.286 30.1207 22.0398C30.2912 21.7898 30.3764 21.4943 30.3764 21.1534C30.3764 20.7027 30.2173 20.3314 29.8991 20.0398C29.5848 19.7481 29.117 19.6023 28.4957 19.6023H26.3651V22.8125ZM37.1932 29.6761C36.6402 29.6761 36.142 29.5777 35.6989 29.3807C35.2595 29.1799 34.911 28.8845 34.6534 28.4943C34.3996 28.1042 34.2727 27.6231 34.2727 27.0511C34.2727 26.5587 34.3636 26.1515 34.5455 25.8295C34.7273 25.5076 34.9754 25.25 35.2898 25.0568C35.6042 24.8636 35.9583 24.7178 36.3523 24.6193C36.75 24.517 37.161 24.4432 37.5852 24.3977C38.0966 24.3447 38.5114 24.2973 38.8295 24.2557C39.1477 24.2102 39.3788 24.142 39.5227 24.0511C39.6705 23.9564 39.7443 23.8106 39.7443 23.6136V23.5795C39.7443 23.1515 39.6174 22.8201 39.3636 22.5852C39.1098 22.3504 38.7443 22.233 38.267 22.233C37.7633 22.233 37.3636 22.3428 37.0682 22.5625C36.7765 22.7822 36.5795 23.0417 36.4773 23.3409L34.5568 23.0682C34.7083 22.5379 34.9583 22.0947 35.3068 21.7386C35.6553 21.3788 36.0814 21.1098 36.5852 20.9318C37.089 20.75 37.6458 20.6591 38.2557 20.6591C38.6761 20.6591 39.0947 20.7083 39.5114 20.8068C39.928 20.9053 40.3087 21.0682 40.6534 21.2955C40.9981 21.5189 41.2746 21.8239 41.483 22.2102C41.6951 22.5966 41.8011 23.0795 41.8011 23.6591V29.5H39.8239V28.3011H39.7557C39.6307 28.5436 39.4545 28.7708 39.2273 28.983C39.0038 29.1913 38.7216 29.3598 38.3807 29.4886C38.0436 29.6136 37.6477 29.6761 37.1932 29.6761ZM37.7273 28.1648C38.1402 28.1648 38.4981 28.0833 38.8011 27.9205C39.1042 27.7538 39.3371 27.5341 39.5 27.2614C39.6667 26.9886 39.75 26.6913 39.75 26.3693V25.3409C39.6856 25.3939 39.5758 25.4432 39.4205 25.4886C39.2689 25.5341 39.0985 25.5739 38.9091 25.608C38.7197 25.642 38.5322 25.6723 38.3466 25.6989C38.161 25.7254 38 25.7481 37.8636 25.767C37.5568 25.8087 37.2822 25.8769 37.0398 25.9716C36.7973 26.0663 36.6061 26.1989 36.4659 26.3693C36.3258 26.536 36.2557 26.7519 36.2557 27.017C36.2557 27.3958 36.3939 27.6818 36.6705 27.875C36.947 28.0682 37.2992 28.1648 37.7273 28.1648ZM50.767 23.0795L48.892 23.2841C48.839 23.0947 48.7462 22.9167 48.6136 22.75C48.4848 22.5833 48.3106 22.4489 48.0909 22.3466C47.8712 22.2443 47.6023 22.1932 47.2841 22.1932C46.8561 22.1932 46.4962 22.286 46.2045 22.4716C45.9167 22.6572 45.7746 22.8977 45.7784 23.1932C45.7746 23.447 45.8674 23.6534 46.0568 23.8125C46.25 23.9716 46.5682 24.1023 47.0114 24.2045L48.5 24.5227C49.3258 24.7008 49.9394 24.983 50.3409 25.3693C50.7462 25.7557 50.9508 26.2614 50.9545 26.8864C50.9508 27.4356 50.7898 27.9205 50.4716 28.3409C50.1572 28.7576 49.7197 29.0833 49.1591 29.3182C48.5985 29.553 47.9545 29.6705 47.2273 29.6705C46.1591 29.6705 45.2992 29.447 44.6477 29C43.9962 28.5492 43.608 27.9223 43.483 27.1193L45.4886 26.9261C45.5795 27.3201 45.7727 27.6174 46.0682 27.8182C46.3636 28.0189 46.7481 28.1193 47.2216 28.1193C47.7102 28.1193 48.1023 28.0189 48.3977 27.8182C48.697 27.6174 48.8466 27.3693 48.8466 27.0739C48.8466 26.8239 48.75 26.6174 48.5568 26.4545C48.3674 26.2917 48.072 26.1667 47.6705 26.0795L46.1818 25.767C45.3447 25.5928 44.7254 25.2992 44.3239 24.8864C43.9223 24.4697 43.7235 23.9432 43.7273 23.3068C43.7235 22.7689 43.8693 22.303 44.1648 21.9091C44.464 21.5114 44.8788 21.2045 45.4091 20.9886C45.9432 20.7689 46.5587 20.6591 47.2557 20.6591C48.2784 20.6591 49.0833 20.8769 49.6705 21.3125C50.2614 21.7481 50.6269 22.3371 50.767 23.0795ZM54.5256 26.7614L54.5199 24.2784H54.8494L57.9858 20.7727H60.3892L56.5312 25.0682H56.1051L54.5256 26.7614ZM52.6506 29.5V17.8636H54.7074V29.5H52.6506ZM58.1278 29.5L55.2869 25.5284L56.6733 24.0795L60.5881 29.5H58.1278ZM65.2642 29.6705C64.3892 29.6705 63.6335 29.4886 62.9972 29.125C62.3646 28.7576 61.8778 28.2386 61.5369 27.5682C61.196 26.8939 61.0256 26.1004 61.0256 25.1875C61.0256 24.2898 61.196 23.5019 61.5369 22.8239C61.8816 22.142 62.3627 21.6117 62.9801 21.233C63.5975 20.8504 64.3229 20.6591 65.1562 20.6591C65.6941 20.6591 66.2017 20.7462 66.679 20.9205C67.16 21.0909 67.5843 21.3561 67.9517 21.7159C68.3229 22.0758 68.6146 22.5341 68.8267 23.0909C69.0388 23.6439 69.1449 24.303 69.1449 25.0682V25.6989H61.9915V24.3125H67.1733C67.1695 23.9186 67.0843 23.5682 66.9176 23.2614C66.7509 22.9508 66.518 22.7064 66.2188 22.5284C65.9233 22.3504 65.5786 22.2614 65.1847 22.2614C64.7642 22.2614 64.3949 22.3636 64.0767 22.5682C63.7585 22.7689 63.5104 23.0341 63.3324 23.3636C63.1581 23.6894 63.0691 24.0473 63.0653 24.4375V25.6477C63.0653 26.1553 63.1581 26.5909 63.3438 26.9545C63.5294 27.3144 63.7888 27.5909 64.1222 27.7841C64.4555 27.9735 64.8456 28.0682 65.2926 28.0682C65.5919 28.0682 65.8627 28.0265 66.1051 27.9432C66.3475 27.8561 66.5578 27.7292 66.7358 27.5625C66.9138 27.3958 67.0483 27.1894 67.1392 26.9432L69.0597 27.1591C68.9384 27.6667 68.7074 28.1098 68.3665 28.4886C68.0294 28.8636 67.5975 29.1553 67.071 29.3636C66.5445 29.5682 65.9422 29.6705 65.2642 29.6705ZM75.2429 20.7727V22.3636H70.2259V20.7727H75.2429ZM71.4645 18.6818H73.5213V26.875C73.5213 27.1515 73.563 27.3636 73.6463 27.5114C73.7334 27.6553 73.8471 27.7538 73.9872 27.8068C74.1274 27.8598 74.2827 27.8864 74.4531 27.8864C74.5819 27.8864 74.6993 27.8769 74.8054 27.858C74.9152 27.839 74.9986 27.822 75.0554 27.8068L75.402 29.4148C75.2921 29.4527 75.1349 29.4943 74.9304 29.5398C74.7296 29.5852 74.4834 29.6117 74.1918 29.6193C73.6766 29.6345 73.2126 29.5568 72.7997 29.3864C72.3868 29.2121 72.0592 28.9432 71.8168 28.5795C71.5781 28.2159 71.4607 27.7614 71.4645 27.2159V18.6818ZM81.4432 23.6818C81.4432 22.2614 81.6307 20.9564 82.0057 19.767C82.3845 18.5739 82.947 17.4716 83.6932 16.4602H85.6307C85.3428 16.8352 85.0739 17.2955 84.8239 17.8409C84.5739 18.3826 84.3561 18.9773 84.1705 19.625C83.9886 20.2689 83.8447 20.9375 83.7386 21.6307C83.6364 22.3239 83.5852 23.0076 83.5852 23.6818C83.5852 24.5795 83.6742 25.4886 83.8523 26.4091C84.0341 27.3295 84.2784 28.1837 84.5852 28.9716C84.8958 29.7557 85.2443 30.3977 85.6307 30.8977H83.6932C82.947 29.8864 82.3845 28.786 82.0057 27.5966C81.6307 26.4034 81.4432 25.0985 81.4432 23.6818ZM91.3821 29.6591C90.5639 29.6591 89.8366 29.5189 89.2003 29.2386C88.5677 28.9583 88.0677 28.5682 87.7003 28.0682C87.3329 27.5682 87.1378 26.9905 87.1151 26.3352H89.2514C89.2704 26.6496 89.3745 26.9242 89.5639 27.1591C89.7533 27.3902 90.0052 27.5701 90.3196 27.6989C90.634 27.8277 90.9863 27.892 91.3764 27.892C91.7931 27.892 92.1624 27.8201 92.4844 27.6761C92.8063 27.5284 93.0582 27.3239 93.2401 27.0625C93.4219 26.8011 93.5109 26.5 93.5071 26.1591C93.5109 25.8068 93.42 25.4962 93.2344 25.2273C93.0488 24.9583 92.7798 24.7481 92.4276 24.5966C92.0791 24.4451 91.6586 24.3693 91.1662 24.3693H90.1378V22.7443H91.1662C91.5715 22.7443 91.9257 22.6742 92.2287 22.5341C92.5355 22.3939 92.776 22.197 92.9503 21.9432C93.1245 21.6856 93.2098 21.3883 93.206 21.0511C93.2098 20.7216 93.1359 20.4356 92.9844 20.1932C92.8366 19.947 92.6264 19.7557 92.3537 19.6193C92.0848 19.483 91.7685 19.4148 91.4048 19.4148C91.0488 19.4148 90.7192 19.4792 90.4162 19.608C90.1132 19.7367 89.8688 19.9205 89.6832 20.1591C89.4976 20.3939 89.3991 20.6742 89.3878 21H87.3594C87.3745 20.3485 87.562 19.7765 87.9219 19.2841C88.2855 18.7879 88.7704 18.4015 89.3764 18.125C89.9825 17.8447 90.6624 17.7045 91.4162 17.7045C92.1927 17.7045 92.867 17.8504 93.4389 18.142C94.0147 18.4299 94.4598 18.8182 94.7741 19.3068C95.0885 19.7955 95.2457 20.3352 95.2457 20.9261C95.2495 21.5814 95.0563 22.1307 94.6662 22.5739C94.2798 23.017 93.7723 23.3068 93.1435 23.4432V23.5341C93.9616 23.6477 94.5885 23.9508 95.0241 24.4432C95.4635 24.9318 95.6813 25.5398 95.6776 26.267C95.6776 26.9186 95.492 27.5019 95.1207 28.017C94.7533 28.5284 94.2457 28.9299 93.598 29.2216C92.9541 29.5133 92.2154 29.6591 91.3821 29.6591ZM101.321 23.6818C101.321 25.0985 101.132 26.4034 100.753 27.5966C100.378 28.786 99.8172 29.8864 99.071 30.8977H97.1335C97.4252 30.5227 97.6941 30.0644 97.9403 29.5227C98.1903 28.9811 98.4063 28.3864 98.5881 27.7386C98.7737 27.0909 98.9176 26.4205 99.0199 25.7273C99.1259 25.0341 99.179 24.3523 99.179 23.6818C99.179 22.7841 99.0881 21.875 98.9062 20.9545C98.7282 20.0341 98.4839 19.1799 98.1733 18.392C97.8665 17.6042 97.5199 16.9602 97.1335 16.4602H99.071C99.8172 17.4716 100.378 18.5739 100.753 19.767C101.132 20.9564 101.321 22.2614 101.321 23.6818Z" fill="white" />
            </g>
            <defs>
              <clipPath id="clip0_4368_321187">
                <rect width="126" height="48" rx="4" fill="white" />
              </clipPath>
            </defs>
          </svg>